<svg width="20" height="20" viewBox="0 0 20 20" fill="none" xmlns="http://www.w3.org/2000/svg">
<path d="M13.9217 12.8848C15.2123 11.3276 15.8535 9.33303 15.712 7.31542C15.5705 5.29781 14.6573 3.41224 13.1619 2.05036C11.6666 0.688473 9.70411 -0.0450508 7.6821 0.00214393C5.66009 0.0493387 3.73396 0.873625 2.30379 2.30379C0.873625 3.73396 0.0493387 5.66009 0.00214393 7.6821C-0.0450508 9.70411 0.688473 11.6666 2.05036 13.1619C3.41224 14.6573 5.29781 15.5705 7.31542 15.712C9.33303 15.8535 11.3276 15.2123 12.8848 13.9217L18.7912 19.8281C18.928 19.9452 19.104 20.0064 19.2839 19.9995C19.4639 19.9925 19.6346 19.9179 19.762 19.7906C19.8893 19.6632 19.9639 19.4925 19.9709 19.3125C19.9778 19.1326 19.9166 18.9566 19.7995 18.8198L13.9217 12.8848ZM1.44393 7.87945C1.44393 6.60662 1.82136 5.36238 2.52851 4.30406C3.23565 3.24575 4.24074 2.42089 5.41668 1.9338C6.59262 1.44671 7.88659 1.31927 9.13495 1.56758C10.3833 1.8159 11.53 2.42882 12.43 3.32885C13.3301 4.22887 13.943 5.37557 14.1913 6.62394C14.4396 7.87231 14.3122 9.16628 13.8251 10.3422C13.338 11.5182 12.5131 12.5232 11.4548 13.2304C10.3965 13.9375 9.15227 14.315 7.87945 14.315C6.17264 14.315 4.53574 13.6369 3.32885 12.43C2.12195 11.2232 1.44393 9.58625 1.44393 7.87945Z" fill="#063374"/>
</svg>
